<?xml version="1.0" encoding="UTF-8"?>
<svg id="_图层_1" data-name="图层 1" xmlns="http://www.w3.org/2000/svg" viewBox="0 0 360.33 360.33">
  <defs>
    <style>
      .cls-1, .cls-2, .cls-3 {
        stroke-width: 0px;
      }

      .cls-2 {
        fill: #fff;
      }

      .cls-3 {
        fill: #f15a24;
      }
    </style>
  </defs>
  <g id="_图层_2" data-name="图层 2">
    <g>
      <path class="cls-3" d="m180.34,168.58c-1.43.04-2.5-.11-2.5,1.93,0,1.88.46,2.45,2.46,2.59,11.01.77,21.53,3.51,31.45,8.45,13.19,6.57,22.59,16.93,29.92,29.46,5.87,10.03,10.5,20.45,10.87,32.32.11,3.54.36,7.09.32,10.63-.02,2.11,1.51,2.27,2.77,2.39,1.53.15.88-1.33.98-2.09.33-2.41.34-4.84-.03-7.27-.09-.6-.25-1.49.59-1.65,1.06-.2,1.09.74,1.19,1.47.38,2.88.55,5.76.44,8.66-.04.89-.42,1.82.96,2.22,7,2.05,13.65,5.01,20.7,8.26.38-9.37-.83-18.13-2.65-26.82-3.24-15.47-7.7-30.54-17.26-43.41-19.93-26.85-46.12-42.54-80.09-44.01-1.88-.08-2.2.55-2.17,2.19.08,3.55.07,7.11-.06,10.66-.06,1.6.58,2.16,2.07,2.27,1.28.1,3.51-.46,3.43,1.2-.07,1.46-2.21.5-3.4.53Zm73.69,54.39c.58.19.87.64,1.12,1.16,1.69,3.46,2.39,7.25,3.57,10.88.16.49.22,1.19-.44,1.46-.72.3-.97-.26-1.15-.82-1.25-3.8-2.5-7.6-3.74-11.41-.19-.58-.14-1.13.63-1.27Zm-10.26-17.53c.16-.42.59-.33.96-.19,1.02.37,6.77,8.81,6.71,10.09-.11.12-.3.56-.56.6-.27.05-.72-.2-.89-.45-2.08-2.98-4.14-5.97-6.17-8.99-.17-.25-.16-.74-.04-1.05Zm-13.36-17.87c.13.06.51.17.79.39,2.95,2.32,5.73,4.81,8.01,7.81.43.57,1.09,1.34.25,1.93-.59.42-1.2-.18-1.62-.72-2.27-2.88-5.04-5.26-7.8-7.64-.43-.37-.85-.81-.74-1.42.08-.42.5-.47,1.12-.36Zm-18.24-12.98c3.53,1.2,7.06,2.62,10.06,5.1.45.37.92.87.58,1.42-.47.76-1.18.36-1.7-.02-2.96-2.17-6.24-3.68-9.7-4.85-.51-.17-1.19-.41-1-1.1.23-.88,1.04-.52,1.76-.55Zm-19.7-5.77c1.74-.8,10.72,1.8,12.05,3.58-2.37.59-4.34-.81-6.49-1.08-1.74-.21-3.47-.56-5.2-.87-.46-.08-.92-.24-.96-.82-.03-.42.24-.65.61-.81Z"/>
      <path class="cls-3" d="m213.56,155.59c11.79,4.85,22.98,10.79,32.79,19.05.95.8,1.51.75,2.29-.14,1.54-1.76,2.88-3.67,4.33-5.48,14.86-18.53,26.71-38.91,36.98-60.24,3.78-7.85,6.68-16.04,6.97-24.93-.17-1.29-.26-2.6-.52-3.88-1.23-5.86-5.22-8.76-11.16-7.96-2.11.28-4.23.81-6.25,1.51-7.2,2.51-13.14,7.05-18.67,12.12-12.82,11.75-23.42,25.36-32.93,39.85-5.65,8.6-10.4,17.7-14.59,27.09-.52,1.15-1.28,2.18.76,3.02Zm62.85-75.37c3.25-2.25,6.6-2.93,10.2-.84,3.6,2.09,5.54,5.2,5.73,9.35.19,4.25-1.77,7.94-4.07,11.1-.9,1.25-3.93,1.65-5.87,1.5-5.14.07-9.78-2.95-11.08-7.02-1.54-4.83.73-11.08,5.08-14.1Z"/>
      <path class="cls-3" d="m115.99,123.93c-7.76-11.42-15.28-22.99-24.45-33.38-3.99-4.52-8.33-8.57-13.46-11.7-6.51-3.98-13.98-1.13-15.04,5.64,5.25-6.78,9.46-8.05,15.02-4.54,5.1,3.21,7.35,10.67,4.77,15.8-2.51,5-9.03,6.81-15.78,4.1.21.73.28,1.09.41,1.42,5.53,13.41,12.29,26.19,20.06,38.42,5.01,7.88,10.46,15.46,16.22,22.81,1.41,1.81,2.82,2.08,5.09,1.22,6.27-2.37,11.53-6.49,17.39-9.56,4.88-2.56,5-3.3,2.74-8.33-3.51-7.78-8.18-14.84-12.97-21.88Z"/>
      <path class="cls-3" d="m72.6,99.29c4.77.09,9.18-3.67,9.28-7.89.13-5.62-4.44-11.01-9.35-11.06-4.24-.04-7.93,4.04-7.97,8.82-.04,5.32,3.72,10.06,8.04,10.14Zm-5.1-12.09c.27-.49.78-.61,1.19-.42,1.92.88,2.89-.05,3.58-1.72.28-.68.94-1.02,1.59-.65.79.44.43,1.15.02,1.66-1.62,1.97-.34,2.65,1.34,3.31.69.27,1.9.53,1.42,1.63-.47,1.09-1.46.49-2.15.08-1.85-1.1-3.04-.87-3.52,1.44-.14.68-.6,1.54-1.53,1.21-.59-.21-.3-.97-.29-1.72,1.02-1.67,1.17-3.22-1.44-3.86-.29-.07-.44-.58-.23-.97Z"/>
      <path class="cls-3" d="m282.02,99.28c4.24.02,8.16-4.62,8.19-9.69.03-5.14-3.38-9.19-7.79-9.24-4.98-.06-9.5,5.11-9.5,10.86,0,4.27,4.25,8.04,9.1,8.07Zm-2.46-9.92c1.75-.59,2.91-1.34,1.31-3.29-.37-.45-.85-1.21-.02-1.67.66-.37,1.34-.03,1.61.66.75,1.9,1.98,2.47,3.9,1.71.44-.17.99.13,1.04.65.03.28-.31.81-.56.86-2.56.53-1.99,2.04-1.29,3.71.26.63.5,1.46-.4,1.92-.81-.1-1.19-.71-1.33-1.31-.5-2.22-1.62-2.66-3.55-1.5-.67.4-1.66,1.06-2.13-.09-.44-1.08.64-1.37,1.42-1.63Z"/>
      <path class="cls-3" d="m180.17,0C80.66,0,0,80.66,0,180.17c0,39.6,12.79,76.21,34.45,105.95,31.39-19.24,67.04-32.19,105.2-37.16-4.21.45-6.63.79-6.63.79v-.04c-15.27,2.25-30.14,5.69-44.52,10.23,2.05-.75,4.11-1.47,6.19-2.12,1.38-.43,1.28-1.33,1.31-2.38.07-2.71.16-5.41.31-8.12.05-.88.01-2.2,1.27-2.01,1,.15.76,1.39.6,2.18-.52,2.42-.23,4.84-.17,7.27.04,1.49.66,1.88,2.17,1.45,1.63-.46,1.53-1.55,1.59-2.8.23-4.94.21-9.92.85-14.8,1.57-11.95,7.04-22.31,13.47-32.31,13.68-21.31,33.87-31.04,58.36-33.21,1.95-.17,2.49-.61,2.5-2.55.02-2.31-1.3-2.03-2.74-1.9-.65.06-1.3.13-1.96.16-.57.03-1.23.03-1.36-.66-.16-.89.61-1.05,1.25-1.15.64-.11,1.3-.14,1.95-.13,1.7.02,2.51-.54,2.42-2.48-.18-3.54-.15-7.1-.04-10.65.05-1.66-.54-2.1-2.11-1.95-13.15,1.22-26.16,2.78-38.25,8.85-18.54,9.31-33.78,22.14-44.94,39.8-6.29,9.96-9.88,20.9-12.71,32.16-2.62,10.43-4.48,21-4.13,32.26-1.56.58-3.11,1.16-4.66,1.77.01-.22.02-.44.05-.65,1.83-17.9,4.79-35.52,11.79-52.28,5.2-12.45,12.07-23.8,21.08-33.83,1.1-1.22,1.36-1.74.18-3.08-4.37-5-8.27-10.38-11.97-15.89-8.8-13.13-16.63-26.82-24.12-40.74-5.88-10.93-10.26-22.16-11.44-34.58-.54-5.67,2.91-12.41,8-14.79,4.73-2.21,9.63-1.44,14.16.33,9.03,3.54,16.37,9.83,23.1,16.54,13.01,12.98,24.04,27.59,33.83,43.16,4.19,6.67,7.34,13.87,11.19,20.71.87,1.55,1.72,2.13,3.55,1.59,5.48-1.62,11.17-2.23,16.79-3.12,13.36-2.12,26.44.05,39.42,3.02,2.19.5,3.24.05,4.19-1.84,2.51-5.01,4.99-10.05,7.77-14.91,8.9-15.56,19.72-29.72,31.62-43.09,7.08-7.95,15.27-14.55,24.28-20.17,4.8-2.99,10.15-3.73,15.63-3.25,5.86.51,11.15,8.1,10.74,15.1-.25,4.3-.97,8.52-2.02,12.71-2.36,9.44-6.96,17.87-11.5,26.37-9.97,18.66-20.78,36.76-34.23,53.17-.69.85-.99,1.28-.08,2.25,13.4,14.43,21.64,31.65,27.15,50.34.6,2.05,1.11,4.14,1.69,6.44l-.04.19s4.5,20.19,4.73,32.1c-16.16-6.69-33.08-11.93-50.57-15.6v.06c-1.19-.28-2.37-.55-3.55-.81-5.94-1.17-11.95-2.17-18.02-2.97.15,0,.29-.02.43-.02-1.91-.24-3.82-.46-5.73-.66.08.02.15.05.23.06-1.82-.21-3.66-.37-5.49-.55-2.38-.19-4.74-.35-7.09-.48,46.64,3.57,89.94,19.07,126.88,43.43,23.84-30.55,38.04-68.98,38.04-110.73C360.33,80.66,279.67,0,180.17,0Zm-27.61,170.49c2.89-.65,5.79-1.21,8.7-1.77.64-.12,1.35-.08,1.61.71.12.37-.07.78-.48.87-4.01.8-8.02,1.57-12.31,2.41.51-1.65,1.51-2,2.48-2.22Zm-20.1,9.23c3.12-2.42,6.59-4.16,10.41-5.13.61-.15,1.34-.2,1.51.74-.19.63-.73.8-1.26.98-3.37,1.13-6.54,2.65-9.44,4.7-.52.37-1.16.9-1.69.16-.35-.49,0-1.08.47-1.44Zm-17.35,16.74c2.44-3.6,5.61-6.46,9.21-8.86.22-.14.79-.05,1,.15.44.41.13.91-.2,1.21-3,2.67-6.03,5.31-8.6,8.41-.17.2-.45.31-.64.43-1.09-.03-1.14-.76-.76-1.34Zm-11.63,18.04c1.81-3.16,3.65-6.31,6.15-9,.33-.35.81-.54,1.26-.24.49.33.37.85.1,1.24-2.06,3-4.13,5.99-6.22,8.97-.15.22-.43.35-.65.52-.95-.2-.98-.91-.64-1.49Zm-4.01,9.8c.23-.65.64-1.59,1.56-1.18.79.35.27,1.16.08,1.74-1.1,3.46-2.22,6.91-3.35,10.35-.19.58-.21,1.46-1.12,1.32-.91-.15-.61-.99-.67-1.77,1.13-3.39,2.27-6.93,3.5-10.45Z"/>
      <path class="cls-2" d="m195.41,247.46c2.34.13,4.71.29,7.09.48,1.83.17,3.67.34,5.49.55-.08-.02-.15-.05-.23-.06,1.91.19,3.82.41,5.73.66-.14,0-.28.02-.43.02,6.07.8,12.08,1.79,18.02,2.97,1.19.26,2.37.53,3.54.81v-.06c17.5,3.67,34.42,8.91,50.58,15.6-.23-11.91-4.73-32.1-4.73-32.1l.04-.19c-.58-2.29-1.08-4.39-1.69-6.44-5.51-18.69-13.75-35.91-27.15-50.34-.9-.97-.61-1.4.08-2.25,13.45-16.41,24.26-34.51,34.23-53.17,4.54-8.5,9.14-16.93,11.5-26.37,1.05-4.19,1.77-8.41,2.02-12.71.41-7-4.88-14.59-10.74-15.1-5.48-.48-10.83.26-15.63,3.25-9.01,5.61-17.2,12.21-24.28,20.17-11.9,13.37-22.72,27.53-31.62,43.09-2.78,4.86-5.25,9.9-7.77,14.91-.95,1.89-2,2.34-4.19,1.84-12.97-2.97-26.05-5.14-39.42-3.02-5.62.89-11.31,1.5-16.79,3.12-1.82.54-2.67-.04-3.55-1.59-3.85-6.84-7-14.04-11.19-20.71-9.79-15.57-20.82-30.18-33.83-43.16-6.72-6.71-14.06-12.99-23.1-16.54-4.53-1.78-9.43-2.54-14.16-.33-5.09,2.38-8.54,9.12-8,14.79,1.18,12.41,5.56,23.65,11.44,34.58,7.49,13.92,15.32,27.61,24.12,40.74,3.7,5.51,7.59,10.89,11.97,15.89,1.17,1.34.92,1.85-.18,3.08-9.02,10.02-15.88,21.38-21.08,33.83-7.01,16.76-9.96,34.38-11.79,52.28-.02.21-.03.43-.05.65,1.54-.61,3.1-1.19,4.66-1.77-.35-11.26,1.5-21.83,4.13-32.26,2.83-11.26,6.42-22.2,12.71-32.16,11.15-17.66,26.4-30.49,44.94-39.8,12.09-6.07,25.1-7.63,38.25-8.85,1.57-.14,2.15.29,2.11,1.95-.11,3.55-.13,7.11.04,10.65.1,1.94-.72,2.5-2.42,2.48-.65,0-1.31.02-1.95.13-.63.11-1.41.26-1.25,1.15.12.69.79.69,1.36.66.65-.04,1.3-.1,1.96-.16,1.44-.13,2.75-.41,2.74,1.9-.01,1.93-.56,2.38-2.5,2.55-24.49,2.17-44.68,11.9-58.36,33.21-6.42,10-11.89,20.37-13.47,32.31-.64,4.89-.62,9.86-.85,14.8-.06,1.25.04,2.33-1.59,2.8-1.52.43-2.14.04-2.17-1.45-.06-2.42-.34-4.85.17-7.27.17-.79.41-2.03-.6-2.18-1.26-.19-1.22,1.13-1.27,2.01-.15,2.7-.24,5.41-.31,8.12-.03,1.05.08,1.94-1.31,2.38-2.08.65-4.14,1.37-6.19,2.12,14.38-4.54,29.25-7.99,44.51-10.23v.04s2.42-.35,6.64-.79c11.45-1.49,23.12-2.29,34.98-2.29,7,0,13.93.27,20.79.8ZM64.56,89.15c.04-4.77,3.72-8.85,7.97-8.82,4.92.04,9.48,5.44,9.35,11.06-.1,4.23-4.51,7.98-9.28,7.89-4.32-.08-8.08-4.82-8.04-10.14Zm61.66,64.99c-5.85,3.08-11.11,7.19-17.39,9.56-2.27.86-3.67.58-5.09-1.22-5.76-7.36-11.22-14.93-16.22-22.81-7.77-12.23-14.53-25.01-20.06-38.42-.14-.33-.2-.69-.41-1.42,6.75,2.71,13.27.9,15.78-4.1,2.58-5.13.32-12.58-4.77-15.8-5.56-3.5-9.77-2.23-15.02,4.54,1.06-6.77,8.53-9.62,15.04-5.64,5.14,3.14,9.47,7.19,13.46,11.7,9.18,10.39,16.69,21.96,24.45,33.38,4.79,7.04,9.46,14.1,12.97,21.88,2.27,5.03,2.14,5.77-2.74,8.33Zm86.58-1.58c4.19-9.39,8.95-18.48,14.59-27.09,9.51-14.49,20.11-28.1,32.93-39.85,5.53-5.07,11.47-9.61,18.67-12.12,2.02-.7,4.13-1.23,6.25-1.51,5.94-.8,9.93,2.09,11.16,7.96.27,1.27.35,2.58.52,3.88-.29,8.9-3.19,17.08-6.97,24.93-10.28,21.33-22.12,41.71-36.98,60.24-1.45,1.81-2.79,3.73-4.33,5.48-.78.89-1.34.94-2.29.14-9.81-8.26-21-14.2-32.79-19.05-2.04-.84-1.27-1.87-.76-3.02Zm-32.49,14.28c-1.49-.12-2.12-.68-2.07-2.27.12-3.55.13-7.11.06-10.66-.03-1.63.29-2.27,2.17-2.19,33.97,1.46,60.16,17.16,80.09,44.01,9.56,12.87,14.02,27.94,17.26,43.41,1.82,8.69,3.04,17.44,2.65,26.82-7.05-3.25-13.7-6.22-20.7-8.26-1.38-.4-1-1.34-.96-2.22.12-2.9-.05-5.79-.44-8.66-.1-.74-.12-1.68-1.19-1.47-.84.16-.68,1.05-.59,1.65.36,2.43.35,4.85.03,7.27-.1.76.54,2.24-.98,2.09-1.27-.12-2.79-.29-2.77-2.39.03-3.54-.21-7.09-.32-10.63-.37-11.87-5-22.29-10.87-32.32-7.33-12.52-16.73-22.89-29.92-29.46-9.92-4.94-20.43-7.68-31.45-8.45-1.99-.14-2.45-.71-2.46-2.59,0-2.04,1.06-1.89,2.5-1.93,1.19-.03,3.34.93,3.4-.53.08-1.65-2.15-1.1-3.43-1.2Z"/>
      <path class="cls-2" d="m282.41,101.33c1.94.14,4.96-.26,5.87-1.5,2.3-3.17,4.26-6.86,4.07-11.1-.19-4.15-2.13-7.26-5.73-9.35-3.6-2.09-6.96-1.41-10.2.84-4.35,3.01-6.62,9.27-5.08,14.1,1.3,4.07,5.93,7.09,11.08,7.02Zm0-20.99c4.4.05,7.82,4.1,7.79,9.24-.03,5.07-3.95,9.71-8.19,9.69-4.85-.03-9.1-3.8-9.1-8.07,0-5.76,4.52-10.92,9.5-10.86Z"/>
      <path class="cls-2" d="m230.04,189.33c2.76,2.38,5.53,4.76,7.8,7.64.43.54,1.04,1.14,1.62.72.84-.59.18-1.36-.25-1.93-2.28-3-5.06-5.49-8.01-7.81-.28-.22-.66-.33-.79-.39-.62-.11-1.04-.06-1.12.36-.11.61.31,1.05.74,1.42Z"/>
      <path class="cls-2" d="m211.41,176.23c3.46,1.16,6.74,2.68,9.7,4.85.52.38,1.23.78,1.7.02.34-.55-.13-1.04-.58-1.42-3-2.48-6.52-3.9-10.06-5.1-.72.03-1.53-.33-1.76.55-.18.69.49.93,1,1.1Z"/>
      <path class="cls-2" d="m257.13,235.65c.18.56.43,1.12,1.15.82.66-.27.6-.97.44-1.46-1.18-3.63-1.88-7.42-3.57-10.88-.25-.52-.54-.98-1.12-1.16-.77.15-.82.69-.63,1.27,1.23,3.81,2.49,7.61,3.74,11.41Z"/>
      <path class="cls-2" d="m192.82,170.43c1.73.31,3.46.66,5.2.87,2.15.26,4.13,1.67,6.49,1.08-1.33-1.78-10.3-4.38-12.05-3.58-.36.17-.63.39-.61.81.04.58.49.74.96.82Z"/>
      <path class="cls-2" d="m249.98,215.47c.18.25.62.5.89.45.26-.05.45-.48.56-.6.07-1.27-5.69-9.72-6.71-10.09-.37-.13-.79-.23-.96.19-.12.31-.13.79.04,1.05,2.03,3.02,4.08,6.01,6.17,8.99Z"/>
      <path class="cls-2" d="m115.86,197.8c.2-.13.48-.23.64-.43,2.57-3.1,5.6-5.74,8.6-8.41.33-.3.64-.8.2-1.21-.21-.2-.78-.29-1-.15-3.59,2.41-6.77,5.26-9.21,8.86-.39.57-.33,1.3.76,1.34Z"/>
      <path class="cls-2" d="m96.64,236.52c.91.15.93-.74,1.12-1.32,1.13-3.45,2.26-6.89,3.35-10.35.18-.58.7-1.39-.08-1.74-.92-.41-1.34.53-1.56,1.18-1.23,3.52-2.37,7.06-3.5,10.45.06.79-.24,1.62.67,1.77Z"/>
      <path class="cls-2" d="m133.67,181c2.91-2.05,6.08-3.57,9.44-4.7.52-.18,1.07-.35,1.26-.98-.16-.93-.9-.89-1.51-.74-3.83.98-7.29,2.72-10.41,5.13-.47.36-.82.95-.47,1.44.53.74,1.17.21,1.69-.16Z"/>
      <path class="cls-2" d="m104.12,215.98c.22-.17.49-.3.65-.52,2.08-2.98,4.16-5.97,6.22-8.97.27-.39.39-.91-.1-1.24-.44-.3-.93-.12-1.26.24-2.5,2.69-4.34,5.84-6.15,9-.33.58-.31,1.29.64,1.49Z"/>
      <path class="cls-2" d="m162.86,169.43c-.25-.79-.96-.83-1.61-.71-2.91.55-5.81,1.12-8.7,1.77-.97.22-1.97.56-2.48,2.22,4.28-.83,8.3-1.61,12.31-2.41.41-.08.6-.5.48-.87Z"/>
      <path class="cls-2" d="m67.73,88.17c2.6.64,2.45,2.2,1.44,3.86-.01.75-.3,1.51.29,1.72.93.33,1.39-.53,1.53-1.21.48-2.31,1.67-2.54,3.52-1.44.69.41,1.68,1,2.15-.08.48-1.1-.74-1.36-1.42-1.63-1.68-.66-2.96-1.34-1.34-3.31.42-.51.77-1.21-.02-1.66-.66-.37-1.31-.03-1.59.65-.69,1.67-1.66,2.6-3.58,1.72-.42-.19-.92-.07-1.19.42-.22.39-.07.89.23.97Z"/>
      <path class="cls-2" d="m280.28,91.09c1.93-1.15,3.05-.72,3.55,1.5.13.59.52,1.21,1.33,1.31.9-.46.66-1.29.4-1.92-.7-1.67-1.27-3.18,1.29-3.71.25-.05.59-.58.56-.86-.05-.53-.61-.82-1.04-.65-1.92.76-3.15.19-3.9-1.71-.27-.69-.95-1.02-1.61-.66-.83.46-.35,1.22.02,1.67,1.6,1.95.44,2.7-1.31,3.29-.78.26-1.85.56-1.42,1.63.47,1.16,1.46.5,2.13.09Z"/>
      <path class="cls-1" d="m174.62,246.67c-11.86,0-23.53.8-34.98,2.29-38.16,4.97-73.81,17.91-105.2,37.16,32.76,44.98,85.82,74.22,145.72,74.22s109.15-27.18,142.12-69.44c-36.94-24.36-80.24-39.86-126.88-43.43-6.86-.53-13.79-.8-20.79-.8Z"/>
    </g>
  </g>
</svg>